<?xml version="1.0" encoding="UTF-8" standalone="no"?>
<svg viewBox="0 0 550 550" width="550" height="550" xmlns="http://www.w3.org/2000/svg">
  <defs>
    <clipPath id="clipPath18" clipPathUnits="userSpaceOnUse">
      <path id="path16" d="M 0,2000 H 2000 V 0 H 0 Z"></path>
    </clipPath>
  </defs>
  <g>
    <rect width="550" height="550" style="fill: #2A9D8F;"></rect>
    <g id="g10" transform="matrix(1.33564, 0, 0, -1.331216, -1060.49231, 2514.866211)" style="">
      <g id="g12">
        <g clip-path="url(#clipPath18)" id="g14">
          <g transform="translate(1098.6554,1673.7246)" id="g20">
            <path id="path22" style="fill-opacity: 1; fill-rule: nonzero; fill: #FFF; stroke: #FFF; stroke-width: 7.49947px;" d="M 0,0 V 54.648 L 44.821,22.924 Z m -242.353,22.924 44.805,31.711 V 0.007 Z m 308.219,0.044 c -0.012,0.072 -0.028,0.142 -0.043,0.214 -0.074,0.357 -0.18,0.713 -0.329,1.062 -0.023,0.053 -0.051,0.104 -0.075,0.156 -0.168,0.363 -0.369,0.72 -0.622,1.064 -0.007,0.008 -0.009,0.017 -0.016,0.026 -0.014,0.019 -0.034,0.034 -0.049,0.053 -0.265,0.35 -0.562,0.674 -0.89,0.967 -0.02,0.017 -0.039,0.034 -0.059,0.051 -0.185,0.162 -0.38,0.317 -0.587,0.464 L 0,71.754 v 74.816 c 0,3.593 -3.511,6.506 -7.844,6.506 h -181.86 c -4.332,0 -7.844,-2.913 -7.844,-6.506 V 71.741 l -63.18,-44.716 c -0.206,-0.146 -0.4,-0.301 -0.585,-0.462 -0.02,-0.018 -0.04,-0.035 -0.06,-0.053 -0.329,-0.293 -0.627,-0.618 -0.893,-0.969 -0.014,-0.019 -0.033,-0.033 -0.047,-0.051 -0.006,-0.008 -0.009,-0.017 -0.014,-0.025 -0.254,-0.344 -0.456,-0.702 -0.625,-1.066 -0.024,-0.051 -0.051,-0.102 -0.074,-0.154 -0.149,-0.349 -0.255,-0.705 -0.329,-1.063 -0.015,-0.071 -0.03,-0.142 -0.042,-0.214 -0.05,-0.295 -0.084,-0.592 -0.084,-0.893 v -150.95 c 0,-3.594 3.512,-6.507 7.844,-6.507 h 104.004 c -0.529,0.688 -1.003,1.415 -1.398,2.191 -1.735,3.599 -1.734,7.282 -0.056,10.764 l 0.029,0.058 h -94.735 V 10.42 l 53.701,-27.468 c 0.003,-0.002 0.007,-0.003 0.011,-0.005 l 34.664,-17.731 -66.414,-58.395 c -2.972,-2.614 -2.828,-6.732 0.323,-9.198 1.515,-1.185 3.45,-1.774 5.381,-1.774 2.084,0 4.164,0.685 5.706,2.041 l 68.639,60.352 26.292,-13.448 5.021,10.051 c 0.142,0.296 0.328,0.628 0.545,0.967 0.187,0.375 0.428,0.728 0.695,1.067 l -68.632,35.104 v 148.08 H -15.687 V -8.023 l -68.655,-35.115 c 0.198,-0.24 0.431,-0.55 0.654,-0.927 0.25,-0.382 0.472,-0.771 0.66,-1.161 l 4.985,-9.977 26.287,13.445 68.636,-60.35 c 1.543,-1.358 3.622,-2.043 5.707,-2.043 1.93,0 3.865,0.589 5.38,1.774 3.152,2.466 3.297,6.584 0.324,9.198 l -66.412,58.394 88.383,45.205 v -132.789 h -94.738 c 1.71,-3.558 1.707,-7.231 0.031,-10.709 -0.418,-0.822 -0.913,-1.586 -1.466,-2.304 H 58.105 c 4.333,0 7.844,2.913 7.844,6.507 v 150.95 c 0,0.301 -0.034,0.598 -0.083,0.893"></path>
          </g>
          <g transform="translate(1017.3103,1551.3558)" id="g24">
            <path id="path26" style="fill-opacity: 1; fill-rule: nonzero; stroke-width: 2.24984px; fill: #FFF;" d="m 0,0 h -34.843 l -5.377,-10.78 c -0.394,-0.796 -0.856,-1.537 -1.369,-2.233 H 6.75 c -0.517,0.701 -0.983,1.447 -1.38,2.248 z"></path>
          </g>
          <g transform="translate(938.9368,1785.6379)" id="g28">
            <path id="path30" style="fill-opacity: 1; fill-rule: nonzero; stroke-width: 2.24984px; fill: #FFF;" d="m 0,0 h 121.89 c 2.166,0 3.922,1.456 3.922,3.253 0,1.797 -1.756,3.253 -3.922,3.253 H 0 C -2.166,6.506 -3.922,5.05 -3.922,3.253 -3.922,1.456 -2.166,0 0,0"></path>
          </g>
          <g transform="translate(938.9368,1754.9915)" id="g32">
            <path id="path34" style="fill-opacity: 1; fill-rule: nonzero; stroke-width: 2.24984px; fill: #FFF;" d="m 0,0 h 121.89 c 2.166,0 3.922,1.456 3.922,3.253 0,1.797 -1.756,3.253 -3.922,3.253 H 0 C -2.166,6.506 -3.922,5.05 -3.922,3.253 -3.922,1.456 -2.166,0 0,0"></path>
          </g>
          <g transform="translate(938.9368,1724.3442)" id="g36">
            <path id="path38" style="fill-opacity: 1; fill-rule: nonzero; stroke-width: 2.24984px; fill: #FFF;" d="m 0,0 h 121.89 c 2.166,0 3.922,1.456 3.922,3.253 0,1.797 -1.756,3.253 -3.922,3.253 H 0 C -2.166,6.506 -3.922,5.05 -3.922,3.253 -3.922,1.456 -2.166,0 0,0"></path>
          </g>
          <g transform="translate(938.9368,1693.6971)" id="g40">
            <path id="path42" style="fill-opacity: 1; fill-rule: nonzero; stroke-width: 2.24984px; fill: #FFF;" d="m 0,0 h 121.89 c 2.166,0 3.922,1.456 3.922,3.253 0,1.797 -1.756,3.253 -3.922,3.253 H 0 C -2.166,6.506 -3.922,5.05 -3.922,3.253 -3.922,1.456 -2.166,0 0,0"></path>
          </g>
          <g transform="translate(938.9368,1663.0505)" id="g44">
            <path id="path46" style="fill-opacity: 1; fill-rule: nonzero; stroke-width: 2.24984px; fill: #FFF;" d="m 0,0 h 121.89 c 2.166,0 3.922,1.456 3.922,3.253 0,1.797 -1.756,3.254 -3.922,3.254 H 0 C -2.166,6.507 -3.922,5.05 -3.922,3.253 -3.922,1.456 -2.166,0 0,0"></path>
          </g>
          <g transform="translate(984.8853,1573.2562)" id="g48">
            <path id="path50" style="fill-opacity: 1; fill-rule: nonzero; stroke-width: 2.24984px; fill: #FFF;" d="M 0,0 14.965,30.001 30.007,0 Z M 60.8,-21.9 52.143,-4.656 V -4.59 L 28.965,41.806 23.461,52.823 c -0.105,0.217 -0.234,0.431 -0.391,0.648 0,0.043 -0.076,0.148 -0.233,0.323 -0.043,0.048 -0.066,0.078 -0.097,0.116 -0.082,0.098 -0.137,0.174 -0.137,0.207 0,0.042 -0.104,0.151 -0.311,0.323 l -0.235,0.259 c 0,0.043 -0.104,0.151 -0.311,0.323 -0.156,0.13 -0.234,0.215 -0.234,0.257 -0.104,0.045 -0.233,0.13 -0.39,0.259 -0.156,0.13 -0.26,0.194 -0.311,0.194 -0.053,0.042 -0.183,0.129 -0.391,0.259 l -0.311,0.193 c -0.053,0.043 -0.209,0.13 -0.467,0.26 -0.26,0.129 -0.364,0.172 -0.313,0.129 -0.519,0.26 -1.09,0.453 -1.714,0.583 0.104,0 0,0.021 -0.312,0.063 -0.26,0.088 -0.442,0.13 -0.546,0.13 l -0.389,0.066 -0.468,0.064 h -0.467 -0.468 -0.389 -0.469 l -0.389,-0.064 c -0.26,-0.045 -0.442,-0.066 -0.546,-0.066 l -0.311,-0.064 c -0.313,-0.087 -0.495,-0.129 -0.546,-0.129 -0.105,-0.045 -0.287,-0.088 -0.545,-0.13 -0.313,-0.13 -0.417,-0.172 -0.313,-0.13 0.104,0.043 0.026,0 -0.233,-0.129 -0.26,-0.088 -0.442,-0.151 -0.546,-0.194 -0.052,0 -0.209,-0.063 -0.467,-0.193 L 9.898,56.184 C 9.847,56.142 9.716,56.057 9.509,55.928 9.249,55.798 9.145,55.732 9.198,55.732 9.145,55.732 9.014,55.647 8.807,55.475 8.652,55.388 8.547,55.324 8.496,55.279 8.496,55.237 8.391,55.128 8.185,54.956 8.028,54.826 7.95,54.742 7.95,54.699 7.897,54.654 7.794,54.57 7.639,54.44 7.483,54.268 7.404,54.159 7.404,54.117 7.369,54.087 7.302,54.018 7.22,53.931 7.181,53.889 7.144,53.851 7.093,53.794 L 6.937,53.471 C 6.781,53.254 6.651,53.04 6.548,52.823 L 1.043,41.804 -22.135,-4.59 v -0.066 l -8.656,-17.244 -1.243,-2.476 c -0.935,-1.937 -0.935,-3.878 0,-5.818 0.986,-1.94 2.65,-3.319 4.988,-4.137 1.142,-0.389 1.715,-0.582 1.715,-0.582 h 1.793 c 4.104,0 6.937,1.572 8.496,4.719 l 4.136,8.294 3.345,6.707 h 45.129 l 3.346,-6.707 4.137,-8.294 c 1.559,-3.147 4.391,-4.719 8.496,-4.719 1.193,0 2.363,0.193 3.506,0.582 2.339,0.818 4.002,2.197 4.989,4.137 0.935,1.94 0.935,3.881 0,5.818 z"></path>
          </g>
        </g>
      </g>
    </g>
  </g>
</svg>